<svg width="92" height="45" viewBox="0 0 92 45" fill="none" xmlns="http://www.w3.org/2000/svg">
<path d="M49.1078 9.88969L50.3345 8.65953L51.4557 9.79087L51.5681 9.88629L50.3345 11.1267L49.1078 9.88969Z" fill="white"/>
<path d="M51.575 9.88969L52.8017 8.65953L53.9262 9.78746L54.0319 9.88969L52.8017 11.1267L51.575 9.88969Z" fill="white"/>
<path d="M49.8983 22.147C49.5609 22.147 49.3326 22.0209 49.3224 22.0141C48.8556 21.8267 48.5898 21.3121 48.5898 20.5693C48.5898 20.4398 48.5932 20.3648 48.6034 20.3171V20.1229H38.1726C38.1726 20.1229 38.1726 11.4129 38.1726 10.7314C38.1726 10.3327 37.9136 10.2236 37.6921 10.1078C37.5081 10.0124 37.3172 9.91013 37.2798 9.64434C37.2798 9.60004 37.2763 9.57618 37.2729 9.55574L37.2695 9.50121C38.7076 8.44484 39.7503 7.06474 39.7503 7.06474V18.5383H48.6034V18.0885C48.5898 17.6966 48.5591 16.8788 46.6235 16.8617C46.6235 16.8617 45.7239 16.8754 44.8209 16.8754C44.3132 16.8754 43.8122 16.8686 43.4646 16.8515C42.9092 16.8106 42.6025 16.1938 42.5957 15.635C42.5957 15.2533 42.7422 14.9432 42.9978 14.7797L43.1307 14.6877L43.2125 14.8342C43.3863 15.1647 44.1155 15.3181 45.5058 15.3181H45.6353C46.1805 15.3181 46.8144 15.301 47.5368 15.284C47.5709 15.2806 47.6186 15.2806 47.6561 15.2806C49.9971 15.2806 50.2663 17.315 50.2731 18.1907L50.2765 18.3509C50.2765 18.419 50.2765 18.4838 50.2731 18.5349H52.5937V15.0727C52.5937 15.0727 52.6312 14.8206 52.1439 14.5548C51.8168 14.3742 51.7486 14.0027 51.7486 14.0027C53.6195 12.6465 54.1408 11.4947 54.1408 11.4947L54.1442 20.1263H50.2561V20.2524C50.2493 20.7669 50.3549 21.445 50.6582 21.6768L50.8286 21.8131L50.648 21.9255C50.4094 22.072 50.1573 22.147 49.8983 22.147Z" fill="white"/>
<path d="M31.2653 21.428V20.1229H25.9153V18.511H32.7306L32.7272 20.6306C32.734 20.6306 32.6488 21.2883 33.9403 21.2883C34.7479 21.2883 34.7547 20.5045 34.7547 20.4739V16.705C34.7479 16.1802 34.4106 16.1155 34.155 16.1087C34.1107 16.1087 34.0732 16.1121 34.0732 16.1121H25.9221L25.9187 11.4095C25.9187 11.4095 26.8626 12.592 27.827 13.1406C27.9769 13.2394 27.8985 13.4984 27.4215 13.7949C27.3261 13.8528 27.2034 13.9039 27.2034 14.0368C27.2034 14.1936 27.2034 14.6229 27.2034 14.6229H35.3443C36.3018 14.6331 36.3836 15.6384 36.387 15.9451C36.387 15.9962 36.3802 21.3394 36.3802 21.3394C36.3802 21.353 36.3018 22.8013 33.9676 22.8013C31.0949 22.8013 31.2653 21.428 31.2653 21.428Z" fill="white"/>
<path d="M63.6005 20.1229V7L63.8799 7.4464C63.8833 7.44981 64.0878 7.78376 64.9226 8.50618C65.4202 8.93214 65.6928 9.09911 65.8325 9.16386C65.9756 9.2252 66.0881 9.2729 66.0881 9.42625L66.0846 9.55915C66.0472 9.83517 65.8563 9.93399 65.6723 10.0328C65.4508 10.1487 65.243 10.2577 65.2225 10.6564C65.1952 10.9563 65.2225 20.1229 65.2225 20.1229H63.6005Z" fill="white"/>
<path fill-rule="evenodd" clip-rule="evenodd" d="M57.586 20.1672L55.9367 21.8199L58.6117 24.4915L61.2697 21.8233L59.617 20.1672L61.6071 18.0612V7.01022C61.6071 7.01022 60.8642 8.6936 59.5659 9.5387L59.5693 9.6273C59.593 9.8852 59.7452 9.98427 59.8912 10.0793L59.893 10.0805L59.8961 10.0825C60.0722 10.1977 60.2407 10.3078 60.2576 10.7177C60.2747 11.0244 60.2576 17.3729 60.2576 17.3729L58.6083 19.0904L56.9522 17.3729C56.9522 17.3622 56.9519 17.2835 56.9515 17.1509C56.9477 16.021 56.9309 10.977 56.9522 10.7177C56.9692 10.3056 57.1361 10.1965 57.3132 10.0806L57.3134 10.0805C57.4599 9.9851 57.6099 9.88628 57.6405 9.62049L57.644 9.49099C56.4683 8.66634 55.5994 7.01022 55.5994 7.01022V18.2112L57.586 20.1672ZM59.709 21.8233L58.6083 22.9342L57.494 21.8233L58.6083 20.7124L59.709 21.8233Z" fill="white"/>
<path d="M51.7351 36.8988L54.5464 33.883C54.5464 33.883 54.5464 27.9639 54.5464 27.9196C54.5464 27.8753 54.6009 27.831 54.6009 27.831L55.0098 27.6265V27.2824H51.2375V27.6197L51.626 27.8685C51.7385 27.9366 51.7453 27.9809 51.7453 28.0218V31.4465H44.1973L42.4935 33.607V28.0354L42.5037 27.9264C42.5071 27.923 42.5344 27.8991 42.5923 27.8651L42.9501 27.6402L42.9876 27.6197V27.2789H39.2222V27.6163L39.5936 27.8582C39.6481 27.8957 39.672 27.9162 39.6822 27.9162H39.6856V38.1596L39.6652 38.2925C39.6515 38.3163 39.6209 38.3436 39.5936 38.3606L39.2188 38.6128V38.9433H42.9842V38.6094L42.5923 38.3606C42.531 38.3266 42.5037 38.3061 42.4935 38.3061H42.4901V33.607L42.8956 33.733L43.417 33.4332C43.5124 33.3752 43.5942 33.3343 43.6521 33.3207C43.6828 33.3105 43.7475 33.2969 43.8634 33.2969H51.7282V36.8988H51.7351Z" fill="white"/>
<path d="M91.7954 31.8418C91.3524 30.4447 90.3403 29.2963 88.7898 28.4341C87.3893 27.6504 85.4026 27.2687 82.7174 27.2687H72.4672V27.6027C72.4672 27.6027 72.8965 27.8889 72.9102 27.8889C72.9136 27.8889 72.9136 27.8889 72.9136 27.8855L72.9102 29.102H82.7003C84.6802 29.102 86.1284 29.3644 87.0042 29.8824C88.4013 30.6968 89.0829 31.7566 89.0863 33.1197C89.0863 33.8046 88.9023 34.4282 88.5411 34.9802C88.1833 35.5255 87.6346 35.9957 86.9088 36.3706C85.9615 36.8613 84.5166 37.11 82.6152 37.11H77.5105V29.9437H74.7196V38.1698L74.7026 38.2925C74.6855 38.3129 74.6549 38.3436 74.6276 38.3674L74.2834 38.5855L74.2528 38.606V38.9399H82.622C84.2304 38.9399 85.498 38.8479 86.384 38.6673C87.6006 38.4117 88.6774 37.9722 89.5906 37.3554C90.5209 36.7284 91.1888 36.0059 91.5705 35.2017C91.8533 34.6156 91.9998 33.9648 91.9998 33.273C92.0032 32.7789 91.9351 32.2984 91.7954 31.8418Z" fill="white"/>
<path d="M54.9962 38.4969C54.9144 38.4833 54.8667 38.4663 54.8428 38.4526L61.8694 31.1466L60.244 29.4155L51.1523 38.9161H55.3369V38.5174H55.1904C55.1223 38.5174 55.0575 38.5072 54.9962 38.4969Z" fill="white"/>
<path d="M61.0005 28.9657L62.7964 30.8706L64.6535 32.738H61.5185L59.801 34.5372L60.1725 34.7928L60.578 34.5747C60.6155 34.5577 60.6563 34.5441 60.6904 34.5406C60.7177 34.5372 60.8199 34.5338 60.9835 34.5338H66.3437L70.0444 38.4867C70.0444 38.4867 69.9865 38.5549 69.6662 38.5549H69.5231V38.957H73.7077L62.6192 27.2721L61.0005 28.9657Z" fill="white"/>
<path d="M34.1208 27.6197L34.4957 27.8617C34.5809 27.9196 34.6252 27.9741 34.6252 28.0218L34.6286 38.1494L34.6013 38.2789C34.5672 38.3095 34.5298 38.3436 34.4991 38.3606L34.1174 38.606V38.9468H37.8522V38.6094L37.508 38.3675C37.4603 38.3334 37.4331 38.3129 37.4229 38.3129C37.4194 38.3129 37.4194 38.3129 37.4194 38.3163V28.0389L37.4297 27.9298L37.5149 27.8514L37.8556 27.6231V27.2858H34.1208V27.6197Z" fill="white"/>
<path d="M18.4559 36.7045L17.9652 36.9873C17.8323 37.0691 17.7607 37.093 17.7471 37.0998L9.38133 37.1202C7.46963 37.1202 6.01797 36.8715 5.06383 36.3842C3.62239 35.6345 2.92042 34.5679 2.92042 33.1231C2.92042 32.4722 3.10784 31.8554 3.47586 31.2897C4.19829 30.2266 5.23762 29.5041 6.72677 29.2281C7.12205 29.1566 7.5003 29.1395 7.75247 29.1395C8.18183 29.1395 12.0597 29.1395 12.0597 29.1395C12.3153 29.1293 12.2778 29.1906 12.2846 29.2179L12.2369 29.5212H12.5947L14.4383 27.2926H9.29273C8.10346 27.2926 7.17317 27.3301 6.53253 27.4084C6.19176 27.4493 5.87144 27.5073 5.55453 27.5822C4.71284 27.7731 3.8916 28.0934 3.11125 28.533C1.85382 29.2452 0.950793 30.155 0.43283 31.2318C0.14318 31.8452 -0.00334956 32.5301 5.8095e-05 33.2662C-0.00334956 35.1472 1.00872 36.6466 3.00902 37.7268C3.91204 38.2209 4.92412 38.5651 6.02479 38.7457C6.84603 38.8786 7.98078 38.9467 9.38814 38.9467H17.1678L19.0216 36.6943H18.8716L18.4559 36.7045Z" fill="white"/>
<path d="M14.7416 33.9L16.5545 31.6373H4.35847L3.13171 33.4672H14.1248C14.3327 33.4911 14.4042 33.5422 14.411 33.5763L14.3667 33.9H14.7416Z" fill="white"/>
<path d="M13.9885 29.4155L14.3361 29.5382L14.3838 29.5519L14.912 29.2861C15.0585 29.1872 15.2016 29.1395 15.3584 29.1395H22.0953L22.0987 38.1698L22.0681 38.2959C22.0408 38.33 22.0067 38.3538 21.9863 38.364L21.6012 38.6196V38.9536H25.3667V38.6128L24.9748 38.3743L24.8794 38.2891C24.876 38.2686 24.876 38.2346 24.876 38.1903V29.1395H30.853C31.0813 29.1668 31.112 29.2213 31.112 29.2247V29.545H31.4493L33.3031 27.2858H15.6889L13.9885 29.4155Z" fill="white"/>
</svg>
